<svg width="2371" height="542" xmlns="http://www.w3.org/2000/svg" xmlns:xlink="http://www.w3.org/1999/xlink" xml:space="preserve" overflow="hidden"><defs><filter id="fx0" x="-10%" y="-10%" width="120%" height="120%" filterUnits="userSpaceOnUse" primitiveUnits="userSpaceOnUse"><feComponentTransfer color-interpolation-filters="sRGB"><feFuncR type="discrete" tableValues="0 0"/><feFuncG type="discrete" tableValues="0 0"/><feFuncB type="discrete" tableValues="0 0"/><feFuncA type="linear" slope="0.4" intercept="0"/></feComponentTransfer><feGaussianBlur stdDeviation="3.56855 3.56855"/></filter><clipPath id="clip1"><rect x="1086" y="54" width="2371" height="542"/></clipPath><clipPath id="clip2"><rect x="167" y="135" width="2040" height="197"/></clipPath></defs><g clip-path="url(#clip1)" transform="translate(-1086 -54)"><g clip-path="url(#clip2)" filter="url(#fx0)" transform="translate(1086 53)"><g><path d="M21.3125 0 21.3125-162.992 43.1094-162.992 43.1094-94.5742 132.234-94.5742 132.234-162.992 153.789-162.992 153.789 0 132.234 0 132.234-75.6836 43.1094-75.6836 43.1094 0ZM242.552 1.9375C231.008 1.9375 221.118-0.504557 212.884-5.38867 204.65-10.2728 198.373-17.2559 194.054-26.3379 189.735-35.4199 187.576-46.2174 187.576-58.7305 187.576-71.5664 189.735-82.5657 194.054-91.7285 198.373-100.891 204.65-107.935 212.884-112.859 221.118-117.784 231.008-120.246 242.552-120.246 254.339-120.246 264.409-117.784 272.765-112.859 281.12-107.935 287.538-100.891 292.019-91.7285 296.499-82.5657 298.74-71.5664 298.74-58.7305 298.74-46.2174 296.499-35.4199 292.019-26.3379 287.538-17.2559 281.12-10.2728 272.765-5.38867 264.409-0.504557 254.339 1.9375 242.552 1.9375ZM242.552-14.168C251.271-14.168 258.214-16.0853 263.38-19.9199 268.547-23.7546 272.26-29.0423 274.521-35.7832 276.781-42.5241 277.911-50.1732 277.911-58.7305 277.911-67.4492 276.781-75.2396 274.521-82.1016 272.26-88.9635 268.547-94.3522 263.38-98.2676 258.214-102.183 251.271-104.141 242.552-104.141 234.076-104.141 227.355-102.183 222.39-98.2676 217.425-94.3522 213.853-88.9635 211.673-82.1016 209.493-75.2396 208.404-67.4492 208.404-58.7305 208.404-50.1732 209.493-42.5241 211.673-35.7832 213.853-29.0423 217.425-23.7546 222.39-19.9199 227.355-16.0853 234.076-14.168 242.552-14.168ZM347.68 0 310.02-117.945 331.09-117.945 359.062-22.7656 387.277-117.945 409.68-117.945 438.379-22.8867 466.109-117.945 485.969-117.945 448.309 0 426.996 0 398.055-96.0273 369.234 0ZM556.777 0 556.777-117.945 577-117.945 577 0ZM566.828-140.105C563.034-140.105 559.986-141.215 557.686-143.436 555.385-145.656 554.234-148.461 554.234-151.852 554.234-155.242 555.385-158.048 557.686-160.268 559.986-162.488 563.034-163.598 566.828-163.598 570.622-163.598 573.69-162.488 576.031-160.268 578.372-158.048 579.543-155.242 579.543-151.852 579.543-148.461 578.372-145.656 576.031-143.436 573.69-141.215 570.622-140.105 566.828-140.105ZM655.143 0C645.617 0 638.311-1.51367 633.225-4.54102 628.139-7.56836 624.648-11.9277 622.751-17.6191 620.854-23.3105 619.905-30.1523 619.905-38.1445L619.905-101.598 600.167-101.598 600.167-117.945 619.905-117.945 619.905-144.949 640.007-144.949 640.007-117.945 669.069-117.945 669.069-101.598 640.007-101.598 640.007-39.1133C640.006-31.7669 640.955-26.1361 642.852-22.2207 644.749-18.3053 649.29-16.3477 656.475-16.3477L669.311-16.3477 669.311 0ZM776.807 2.17969C770.026 2.17969 763.83 0.888021 758.219-1.69531 752.609-4.27865 748.128-8.0931 744.778-13.1387 741.428-18.1842 739.753-24.4206 739.753-31.8477 739.753-42.4232 743.062-50.4557 749.682-55.9453 756.302-61.4349 765.667-65.1686 777.776-67.1465 789.885-69.1243 804.053-70.194 820.28-70.3555L820.28-78.5898C820.28-88.681 817.777-95.6035 812.772-99.3574 807.767-103.111 801.43-104.988 793.76-104.988 785.607-104.988 778.745-102.93 773.174-98.8125 767.604-94.6953 764.819-88.1966 764.819-79.3164L745.202-79.3164C745.202-89.0039 747.281-96.8346 751.438-102.809 755.596-108.783 761.328-113.142 768.633-115.887 775.939-118.632 784.315-120.004 793.76-120.004 799.815-120.004 805.607-119.439 811.137-118.309 816.667-117.178 821.632-115.12 826.032-112.133 830.432-109.146 833.923-104.968 836.507-99.5996 839.09-94.2311 840.382-87.3086 840.382-78.832L840.382 0 821.491 0 820.643-17.9219C815.234-11.8672 808.958-7.00325 801.813-3.33008 794.669 0.343099 786.333 2.17969 776.807 2.17969ZM782.135-13.3203C790.208-13.3203 797.474-15.2174 803.932-19.0117 810.391-22.806 815.799-27.6094 820.159-33.4219L820.159-57.3984C798.685-57.1562 783.286-55.138 773.962-51.3437 764.637-47.5495 759.975-41.3333 759.975-32.6953 759.975-26.8021 761.852-22.0996 765.606-18.5879 769.36-15.0762 774.87-13.3203 782.135-13.3203ZM912.09 0C902.483 0 895.137-1.51367 890.051-4.54102 884.965-7.56836 881.493-11.9277 879.637-17.6191 877.78-23.3105 876.852-30.1523 876.852-38.1445L876.852-162.992 896.953-162.992 896.953-39.1133C896.953-31.7669 897.902-26.1562 899.799-22.2812 901.696-18.4062 906.237-16.4687 913.422-16.4687L918.871-16.4687 918.871 0ZM976.257 0C966.65 0 959.303-1.51367 954.217-4.54102 949.132-7.56836 945.66-11.9277 943.803-17.6191 941.947-23.3105 941.018-30.1523 941.018-38.1445L941.018-162.992 961.12-162.992 961.12-39.1133C961.12-31.7669 962.068-26.1562 963.966-22.2812 965.863-18.4062 970.404-16.4687 977.589-16.4687L983.038-16.4687 983.038 0ZM1098.71 2.17969C1092.09 2.17969 1085.81 1.45312 1079.88 0 1073.95-1.45312 1068.72-3.75391 1064.2-6.90234 1059.68-10.0508 1056.15-14.1881 1053.6-19.3145 1051.06-24.4408 1049.79-30.6367 1049.79-37.9023L1069.29-37.9023C1069.29-28.6992 1072.13-22.2207 1077.82-18.4668 1083.51-14.7129 1090.64-12.8359 1099.2-12.8359 1106.86-12.8359 1113.18-14.3092 1118.15-17.2559 1123.11-20.2025 1125.59-25.0664 1125.59-31.8477 1125.59-37.6601 1123.35-41.9792 1118.87-44.8047 1114.39-47.6302 1106.5-50.375 1095.2-53.0391 1086-55.2187 1078.25-57.7415 1071.95-60.6074 1065.65-63.4733 1060.93-67.1061 1057.78-71.5059 1054.63-75.9056 1053.06-81.4557 1053.06-88.1562 1053.06-93.4036 1054.17-98.0254 1056.39-102.021 1058.61-106.018 1061.72-109.348 1065.71-112.012 1069.71-114.676 1074.41-116.674 1079.82-118.006 1085.23-119.338 1091.08-120.004 1097.38-120.004 1103.59-120.004 1109.43-119.277 1114.88-117.824 1120.33-116.371 1125.13-114.111 1129.29-111.043 1133.44-107.975 1136.73-104.02 1139.16-99.1758 1141.58-94.332 1142.79-88.5195 1142.79-81.7383L1123.17-81.7383C1123.17-90.1341 1120.67-96.0677 1115.66-99.5391 1110.66-103.01 1104.56-104.746 1097.38-104.746 1090.11-104.746 1084.22-103.454 1079.7-100.871 1075.18-98.2878 1072.92-94.2513 1072.92-88.7617 1072.92-85.6133 1073.93-82.9492 1075.95-80.7695 1077.96-78.5898 1081.35-76.6322 1086.12-74.8965 1090.88-73.1608 1097.3-71.3242 1105.37-69.3867 1114.17-67.2878 1121.56-64.7851 1127.53-61.8789 1133.51-58.9726 1138.01-55.2389 1141.03-50.6777 1144.06-46.1165 1145.57-40.2838 1145.57-33.1797 1145.57-27.0443 1144.38-21.7363 1142-17.2559 1139.62-12.7754 1136.31-9.10221 1132.07-6.23633 1127.83-3.37044 1122.87-1.2513 1117.18 0.121094 1111.49 1.49349 1105.33 2.17969 1098.71 2.17969ZM1215.16 0C1205.63 0 1198.33-1.51367 1193.24-4.54102 1188.15-7.56836 1184.66-11.9277 1182.77-17.6191 1180.87-23.3105 1179.92-30.1523 1179.92-38.1445L1179.92-101.598 1160.18-101.598 1160.18-117.945 1179.92-117.945 1179.92-144.949 1200.02-144.949 1200.02-117.945 1229.08-117.945 1229.08-101.598 1200.02-101.598 1200.02-39.1133C1200.02-31.7669 1200.97-26.1361 1202.87-22.2207 1204.76-18.3053 1209.3-16.3477 1216.49-16.3477L1229.33-16.3477 1229.33 0ZM1285.44 2.17969C1278.66 2.17969 1272.47 0.888021 1266.85-1.69531 1261.24-4.27865 1256.76-8.0931 1253.41-13.1387 1250.06-18.1842 1248.39-24.4206 1248.39-31.8477 1248.39-42.4232 1251.7-50.4557 1258.32-55.9453 1264.94-61.4349 1274.3-65.1686 1286.41-67.1465 1298.52-69.1243 1312.69-70.194 1328.92-70.3555L1328.92-78.5898C1328.92-88.681 1326.41-95.6035 1321.41-99.3574 1316.4-103.111 1310.07-104.988 1302.4-104.988 1294.24-104.988 1287.38-102.93 1281.81-98.8125 1276.24-94.6953 1273.45-88.1966 1273.45-79.3164L1253.84-79.3164C1253.84-89.0039 1255.92-96.8346 1260.07-102.809 1264.23-108.783 1269.96-113.142 1277.27-115.887 1284.57-118.632 1292.95-120.004 1302.4-120.004 1308.45-120.004 1314.24-119.439 1319.77-118.309 1325.3-117.178 1330.27-115.12 1334.67-112.133 1339.07-109.146 1342.56-104.968 1345.14-99.5996 1347.73-94.2311 1349.02-87.3086 1349.02-78.832L1349.02 0 1330.13 0 1329.28-17.9219C1323.87-11.8672 1317.59-7.00325 1310.45-3.33008 1303.3 0.343099 1294.97 2.17969 1285.44 2.17969ZM1290.77-13.3203C1298.84-13.3203 1306.11-15.2174 1312.57-19.0117 1319.03-22.806 1324.43-27.6094 1328.79-33.4219L1328.79-57.3984C1307.32-57.1562 1291.92-55.138 1282.6-51.3437 1273.27-47.5495 1268.61-41.3333 1268.61-32.6953 1268.61-26.8021 1270.49-22.0996 1274.24-18.5879 1278-15.0762 1283.51-13.3203 1290.77-13.3203ZM1386.82 0 1386.82-117.945 1405.83-117.945 1406.56-97.8437C1409.87-103.979 1414.47-109.105 1420.36-113.223 1426.26-117.34 1433.92-119.398 1443.37-119.398L1445.79-119.398 1445.79-100.871 1443.01-100.871C1437.11-100.871 1431.95-100.104 1427.51-98.5703 1423.07-97.0365 1419.19-94.9173 1415.88-92.2129 1412.57-89.5085 1409.62-86.3802 1407.04-82.8281L1407.04 0ZM1508.67 0C1499.15 0 1491.84-1.51367 1486.76-4.54102 1481.67-7.56836 1478.18-11.9277 1476.28-17.6191 1474.38-23.3105 1473.44-30.1523 1473.44-38.1445L1473.44-101.598 1453.7-101.598 1453.7-117.945 1473.44-117.945 1473.44-144.949 1493.54-144.949 1493.54-117.945 1522.6-117.945 1522.6-101.598 1493.54-101.598 1493.54-39.1133C1493.54-31.7669 1494.49-26.1361 1496.38-22.2207 1498.28-18.3053 1502.82-16.3477 1510.01-16.3477L1522.84-16.3477 1522.84 0ZM1597.36 2.17969C1584.52 2.17969 1574-0.504557 1565.81-5.87305 1557.62-11.2415 1551.54-18.5475 1547.59-27.791 1543.63-37.0345 1541.65-47.4284 1541.65-58.9727 1541.65-71.0013 1543.57-81.597 1547.4-90.7598 1551.24-99.9225 1557.09-107.087 1564.96-112.254 1572.83-117.421 1582.82-120.004 1594.93-120.004 1611-120.004 1623.59-115.16 1632.72-105.473 1641.84-95.7851 1646.4-81.8594 1646.4-63.6953 1646.4-62.4844 1646.36-61.0514 1646.28-59.3965 1646.2-57.7415 1646.08-56.5508 1645.91-55.8242L1561.88-55.8242C1561.96-48.1549 1563.19-41.1113 1565.57-34.6934 1567.95-28.2754 1571.72-23.1289 1576.89-19.2539 1582.06-15.3789 1588.88-13.4414 1597.36-13.4414 1606.4-13.4414 1613.46-15.5605 1618.55-19.7988 1623.63-24.0371 1626.3-30.1523 1626.54-38.1445L1646.52-38.1445C1646.28-29.8294 1644.14-22.6647 1640.1-16.6504 1636.07-10.6361 1630.41-5.99414 1623.15-2.72461 1615.88 0.544922 1607.29 2.17969 1597.36 2.17969ZM1562-70.5976 1626.42-70.5976C1626.18-81.5768 1623.31-89.9726 1617.82-95.7851 1612.33-101.598 1604.7-104.504 1594.93-104.504 1585.08-104.504 1577.36-101.618 1571.74-95.8457 1566.13-90.0736 1562.88-81.6575 1562-70.5976ZM1719.26 2.17969C1709.66 2.17969 1701.34-0.121094 1694.32-4.72266 1687.29-9.32422 1681.86-16.2064 1678.03-25.3691 1674.19-34.5319 1672.28-45.8542 1672.28-59.3359 1672.28-72.737 1674.32-83.918 1678.39-92.8789 1682.47-101.84 1688.22-108.601 1695.65-113.162 1703.08-117.723 1711.83-120.004 1721.93-120.004 1730.32-120.004 1737.63-118.167 1743.84-114.494 1750.06-110.821 1755.07-105.836 1758.86-99.5391L1758.86-162.992 1779.08-162.992 1779.08 0 1759.95 0 1758.86-17.1953C1754.66-11.4635 1749.25-6.80143 1742.63-3.20898 1736.01 0.383463 1728.22 2.17969 1719.26 2.17969ZM1723.38-14.4102C1732.02-14.4102 1739.2-16.4486 1744.93-20.5254 1750.67-24.6022 1755.31-29.5065 1758.86-35.2383L1758.86-80.6484C1755.55-87.2682 1751.21-92.7376 1745.84-97.0566 1740.47-101.376 1733.71-103.535 1725.56-103.535 1714.82-103.535 1706.73-99.7005 1701.28-92.0312 1695.83-84.362 1693.11-73.4635 1693.11-59.3359 1693.11-44.724 1695.67-33.5833 1700.8-25.9141 1705.92-18.2448 1713.45-14.4102 1723.38-14.4102ZM1950.1 1.21094C1945.58 1.21094 1941.83-0.26237 1938.84-3.20898 1935.85-6.1556 1934.36-9.76823 1934.36-14.0469 1934.36-18.487 1935.85-22.14 1938.84-25.0059 1941.83-27.8717 1945.58-29.3047 1950.1-29.3047 1954.54-29.3047 1958.22-27.8717 1961.12-25.0059 1964.03-22.14 1965.48-18.487 1965.48-14.0469 1965.48-9.76823 1964.03-6.1556 1961.12-3.20898 1958.22-0.26237 1954.54 1.21094 1950.1 1.21094ZM1884.11 1.21094C1879.58 1.21094 1875.83-0.26237 1872.84-3.20898 1869.86-6.1556 1868.36-9.76823 1868.36-14.0469 1868.36-18.487 1869.86-22.14 1872.84-25.0059 1875.83-27.8717 1879.58-29.3047 1884.11-29.3047 1888.55-29.3047 1892.22-27.8717 1895.13-25.0059 1898.03-22.14 1899.48-18.487 1899.48-14.0469 1899.48-9.76823 1898.03-6.1556 1895.13-3.20898 1892.22-0.26237 1888.55 1.21094 1884.11 1.21094ZM2016.1 1.21094C2011.58 1.21094 2007.82-0.26237 2004.84-3.20898 2001.85-6.1556 2000.36-9.76823 2000.36-14.0469 2000.36-18.487 2001.85-22.14 2004.84-25.0059 2007.82-27.8717 2011.58-29.3047 2016.1-29.3047 2020.54-29.3047 2024.21-27.8717 2027.12-25.0059 2030.02-22.14 2031.48-18.487 2031.48-14.0469 2031.48-9.76823 2030.02-6.1556 2027.12-3.20898 2024.21-0.26237 2020.54 1.21094 2016.1 1.21094Z" transform="matrix(1 0 0 1 160.139 314)"/></g></g><text font-family="Aptos,Aptos_MSFontService,sans-serif" font-weight="400" font-size="248" transform="matrix(1 0 0 1 1242.32 363)">How it all started …</text></g></svg>